<?xml version="1.0" encoding="iso-8859-1"?>
<!-- Generator: Adobe Illustrator 19.0.0, SVG Export Plug-In . SVG Version: 6.00 Build 0)  -->
<svg version="1.1" id="Layer_1" xmlns="http://www.w3.org/2000/svg" xmlns:xlink="http://www.w3.org/1999/xlink" x="0px" y="0px"
	 viewBox="0 0 520 560" style="enable-background:new 0 0 520 560;" xml:space="preserve">
<g transform="translate(1 1)">
	<g>
		<g>
			<path pathLength="1000" d="M254.787,67.053c-103.253,0-187.733,84.48-187.733,187.733s84.48,187.733,187.733,187.733S442.52,358.04,442.52,254.787
				S358.04,67.053,254.787,67.053z "/>
			<path d="M85.827,85.827c3.413-3.413,3.413-8.533,0-11.947s-8.533-3.413-11.947,0c-99.84,99.84-99.84,261.973,0,361.813
				c1.707,1.707,3.413,2.56,5.973,2.56s4.267-0.853,5.973-2.56c3.413-3.413,3.413-8.533,0-11.947
				C-7.187,330.733-7.187,178.84,85.827,85.827z"/>
			<path d="M435.693,73.88c-3.413-3.413-8.533-3.413-11.947,0s-3.413,8.533,0,11.947c93.013,93.013,93.013,244.907,0,337.92
				c-3.413,3.413-3.413,8.533,0,11.947c1.707,1.707,3.413,2.56,5.973,2.56s4.267-0.853,5.973-2.56
				C535.533,335.853,535.533,173.72,435.693,73.88z"/>
			<path d="M254.787,305.987c14.507,0,25.6-11.093,25.6-25.6V135.32c0-14.507-11.093-25.6-25.6-25.6
				c-14.507,0-25.6,11.093-25.6,25.6v145.067C229.187,294.893,240.28,305.987,254.787,305.987z "/>
			<path d="M254.787,331.587c-18.773,0-34.133,15.36-34.133,34.133s15.36,34.133,34.133,34.133c18.773,0,34.133-15.36,34.133-34.133
				S273.56,331.587,254.787,331.587z "/>
		</g>
	</g>
</g>
<g>
</g>
<g>
</g>
<g>
</g>
<g>
</g>
<g>
</g>
<g>
</g>
<g>
</g>
<g>
</g>
<g>
</g>
<g>
</g>
<g>
</g>
<g>
</g>
<g>
</g>
<g>
</g>
<g>
</g>
</svg>
